<?xml version="1.0" encoding="UTF-8"?>
<svg version="1.1" xmlns="http://www.w3.org/2000/svg" width="428" height="360">
<path d="M0 0 C141.24 0 282.48 0 428 0 C428 118.8 428 237.6 428 360 C286.76 360 145.52 360 0 360 C0 241.2 0 122.4 0 0 Z " fill="none" transform="translate(0,0)"/>
<path d="M0 0 C5.10449974 1.78485042 8.59320054 6.04330605 12.3125 9.80859375 C13.9272852 11.27822972 15.5522692 12.73674154 17.1875 14.18359375 C20.39189495 17.06203303 23.56755071 19.96821358 26.72509766 22.89794922 C56.77364059 50.69501632 96.70678407 82.2240866 138.83203125 86.0859375 C142.97203221 86.94553366 145.22698915 87.89553593 148.3125 90.80859375 C148.8766846 93.82395325 149.02989513 95.93980615 148.875 98.93359375 C148.85203857 99.72620605 148.82907715 100.51881836 148.80541992 101.33544922 C146.33899734 160.96518855 105.65982346 225.95909439 70.3125 271.80859375 C69.89532715 272.35193359 69.4781543 272.89527344 69.04833984 273.45507812 C62.52080752 281.9391772 55.73698515 290.16770871 48.69091797 298.22607422 C47.43065147 299.67294766 46.18523048 301.13271759 44.94140625 302.59375 C33.79652405 315.44711682 18.20025332 328.3491333 1.00390625 331.39453125 C-11.60804624 332.22483005 -23.03392061 325.71510044 -32.48828125 317.7734375 C-33.21402344 317.12503906 -33.93976563 316.47664063 -34.6875 315.80859375 C-35.62980469 314.98488281 -36.57210937 314.16117187 -37.54296875 313.3125 C-48.28485575 303.78858803 -57.4280796 293.11656449 -66.16748047 281.765625 C-67.76169144 279.71307198 -69.38019801 277.68162739 -71.00390625 275.65234375 C-105.81657979 231.9388978 -138.57080208 176.13355549 -149.6875 120.80859375 C-149.90921875 119.80828125 -150.1309375 118.80796875 -150.359375 117.77734375 C-151.54740904 111.80506451 -151.88318823 105.94302014 -151.9375 99.87109375 C-151.9468457 99.14865479 -151.95619141 98.42621582 -151.96582031 97.68188477 C-151.94006215 93.44516223 -151.86227981 88.98337356 -148.6875 85.80859375 C-147.30969532 85.54830038 -145.92159859 85.3418955 -144.53125 85.16015625 C-143.67273438 85.0415625 -142.81421875 84.92296875 -141.9296875 84.80078125 C-140.13328621 84.56023749 -138.33642078 84.32312919 -136.5390625 84.08984375 C-130.62948486 83.26565933 -125.27401886 81.8893326 -119.6875 79.80859375 C-119.00445801 79.56729736 -118.32141602 79.32600098 -117.61767578 79.07739258 C-112.93664491 77.39215344 -108.49663742 75.37153529 -104.0625 73.12109375 C-103.36866211 72.76934082 -102.67482422 72.41758789 -101.95996094 72.05517578 C-72.18959621 56.83030418 -42.74898415 35.521942 -19.375 11.49609375 C-7.42522214 -0.63165952 -7.42522214 -0.63165952 0 0 Z " fill="#D9513B" transform="translate(220.6875,12.19140625)"/>
<path d="M0 0 C5.10449974 1.78485042 8.59320054 6.04330605 12.3125 9.80859375 C13.9272852 11.27822972 15.5522692 12.73674154 17.1875 14.18359375 C20.39189495 17.06203303 23.56755071 19.96821358 26.72509766 22.89794922 C56.77364059 50.69501632 96.70678407 82.2240866 138.83203125 86.0859375 C142.97203221 86.94553366 145.22698915 87.89553593 148.3125 90.80859375 C148.8766846 93.82395325 149.02989513 95.93980615 148.875 98.93359375 C148.85203857 99.72620605 148.82907715 100.51881836 148.80541992 101.33544922 C146.33899734 160.96518855 105.65982346 225.95909439 70.3125 271.80859375 C69.89532715 272.35193359 69.4781543 272.89527344 69.04833984 273.45507812 C62.52080752 281.9391772 55.73698515 290.16770871 48.69091797 298.22607422 C47.43065147 299.67294766 46.18523048 301.13271759 44.94140625 302.59375 C33.79652405 315.44711682 18.20025332 328.3491333 1.00390625 331.39453125 C-11.60804624 332.22483005 -23.03392061 325.71510044 -32.48828125 317.7734375 C-33.21402344 317.12503906 -33.93976563 316.47664063 -34.6875 315.80859375 C-35.62980469 314.98488281 -36.57210937 314.16117187 -37.54296875 313.3125 C-48.28485575 303.78858803 -57.4280796 293.11656449 -66.16748047 281.765625 C-67.76169144 279.71307198 -69.38019801 277.68162739 -71.00390625 275.65234375 C-105.81657979 231.9388978 -138.57080208 176.13355549 -149.6875 120.80859375 C-149.90921875 119.80828125 -150.1309375 118.80796875 -150.359375 117.77734375 C-151.54740904 111.80506451 -151.88318823 105.94302014 -151.9375 99.87109375 C-151.9468457 99.14865479 -151.95619141 98.42621582 -151.96582031 97.68188477 C-151.94006215 93.44516223 -151.86227981 88.98337356 -148.6875 85.80859375 C-147.30969532 85.54830038 -145.92159859 85.3418955 -144.53125 85.16015625 C-143.67273438 85.0415625 -142.81421875 84.92296875 -141.9296875 84.80078125 C-140.13328621 84.56023749 -138.33642078 84.32312919 -136.5390625 84.08984375 C-130.62948486 83.26565933 -125.27401886 81.8893326 -119.6875 79.80859375 C-119.00445801 79.56729736 -118.32141602 79.32600098 -117.61767578 79.07739258 C-112.93664491 77.39215344 -108.49663742 75.37153529 -104.0625 73.12109375 C-103.36866211 72.76934082 -102.67482422 72.41758789 -101.95996094 72.05517578 C-72.18959621 56.83030418 -42.74898415 35.521942 -19.375 11.49609375 C-7.42522214 -0.63165952 -7.42522214 -0.63165952 0 0 Z M-7.125 31.49609375 C-7.80820313 32.13160156 -8.49140625 32.76710938 -9.1953125 33.421875 C-10.42894531 34.60330078 -10.42894531 34.60330078 -11.6875 35.80859375 C-13.9521871 37.94018955 -16.22529257 40.0626987 -18.5 42.18359375 C-19.1084375 42.75158691 -19.716875 43.31958008 -20.34375 43.90478516 C-25.60318996 48.78795135 -31.0761851 53.33481071 -36.6875 57.80859375 C-37.78136886 58.71573722 -38.8737392 59.62468977 -39.96484375 60.53515625 C-64.17630731 80.57061156 -92.26991974 99.1186303 -123.88793945 103.6315918 C-129.02803181 104.42264554 -129.02803181 104.42264554 -132.6875 107.80859375 C-135.49570797 120.96145619 -131.90196918 135.38759156 -127.6875 147.80859375 C-127.17219727 149.32864014 -127.17219727 149.32864014 -126.64648438 150.87939453 C-115.75025284 182.45306025 -101.06707323 211.94218399 -82.6875 239.80859375 C-82.24615723 240.48019531 -81.80481445 241.15179688 -81.35009766 241.84375 C-70.00285411 259.00320435 -57.47468544 275.53475464 -43.6875 290.80859375 C-42.96949219 291.61039062 -42.25148438 292.4121875 -41.51171875 293.23828125 C-36.95315188 298.06297914 -31.89789637 302.11490467 -26.625 306.12109375 C-25.9640332 306.62527832 -25.30306641 307.12946289 -24.62207031 307.64892578 C-15.53410323 314.38717802 -7.16148035 317.9828315 4.3125 316.80859375 C16.80528217 313.54789903 26.77149529 305.01926056 35.83935547 296.23486328 C37.25815238 294.86121204 38.6932435 293.50445183 40.12890625 292.1484375 C46.70271554 285.79905413 52.33534305 279.00909276 57.83837891 271.74462891 C59.39109889 269.70536599 60.96496539 267.68381301 62.54296875 265.6640625 C92.01627332 227.80323513 117.77995289 182.63965524 129.3125 135.80859375 C129.53550781 134.99519531 129.75851562 134.18179688 129.98828125 133.34375 C131.31694969 127.91157496 131.57251179 122.50289525 131.6875 116.93359375 C131.71360352 116.19520264 131.73970703 115.45681152 131.76660156 114.69604492 C131.7770843 111.43029888 131.54937337 109.1971162 129.8359375 106.38671875 C126.20594637 104.1165695 122.76536784 103.88419931 118.5625 103.43359375 C96.25238939 100.41349411 76.41572305 88.71863148 58.3125 75.80859375 C57.57 75.28249512 56.8275 74.75639648 56.0625 74.21435547 C42.61370273 64.63927632 30.18164589 54.2479222 18.0625 43.05859375 C14.21329327 39.52106368 10.34669168 36.02009825 6.375 32.62109375 C5.52035156 31.88503906 4.66570312 31.14898437 3.78515625 30.390625 C-0.51342471 27.64034808 -3.50284885 28.0412475 -7.125 31.49609375 Z " fill="#1B1919" transform="translate(220.6875,12.19140625)"/>
<path d="M0 0 C3.5625 0.3125 3.5625 0.3125 5.18652344 1.45361328 C7.06462118 3.99084469 7.48608214 6.28142076 8.140625 9.3671875 C8.54607544 11.22802979 8.54607544 11.22802979 8.9597168 13.12646484 C9.16798599 14.11848907 9.16798599 14.11848907 9.38046265 15.1305542 C10.11839631 18.64388361 10.89251311 22.14931621 11.66015625 25.65625 C11.89476311 26.73596573 11.89476311 26.73596573 12.1341095 27.8374939 C13.72810296 35.1483202 15.47667196 42.41805809 17.25 49.6875 C17.54108643 50.89035645 17.83217285 52.09321289 18.13208008 53.33251953 C19.36478689 58.42224624 20.60796111 63.50856184 21.890625 68.5859375 C23.64349947 75.60849685 25.09122865 82.04248113 24.5625 89.3125 C18.5078125 89.5078125 18.5078125 89.5078125 16.5625 89.3125 C13.65172107 86.40172107 14.1377462 83.6067347 13.90625 79.625 C13.76871321 77.12174417 13.76871321 77.12174417 11.5625 75.3125 C9.23432795 75.03484584 9.23432795 75.03484584 6.5546875 75.1171875 C5.56855469 75.12363281 4.58242187 75.13007813 3.56640625 75.13671875 C2.53386719 75.15347656 1.50132812 75.17023438 0.4375 75.1875 C-0.60277344 75.19652344 -1.64304688 75.20554687 -2.71484375 75.21484375 C-5.28929092 75.23846253 -7.86328212 75.27139851 -10.4375 75.3125 C-11.53048438 78.55029473 -12.56812738 81.77353782 -13.5 85.0625 C-14.4375 88.3125 -14.4375 88.3125 -15.4375 90.3125 C-19.3975 89.8175 -19.3975 89.8175 -23.4375 89.3125 C-22.7917415 79.86272272 -20.73685966 70.78370982 -18.69140625 61.5625 C-18.31619582 59.8552876 -17.94127697 58.14801109 -17.56663513 56.44067383 C-16.78450472 52.88293046 -15.99809626 49.32616645 -15.20874023 45.77001953 C-14.19654012 41.20775308 -13.19640126 36.64293692 -12.19952488 32.07730103 C-11.43010237 28.56065479 -10.65378725 25.04555778 -9.87541008 21.53088379 C-9.50353633 19.84722942 -9.13396421 18.163065 -8.76672554 16.47839355 C-8.25465506 14.13369571 -7.73321147 11.79127884 -7.20922852 9.44921875 C-7.05902756 8.75211288 -6.9088266 8.05500702 -6.7540741 7.33677673 C-5.19661816 0.47241983 -5.19661816 0.47241983 0 0 Z " fill="#0C0403" transform="translate(188.4375,82.6875)"/>
<path d="M0 0 C3.0625 0.1875 3.0625 0.1875 5.0625 2.1875 C5.3409729 5.08547974 5.3409729 5.08547974 5.38134766 8.84033203 C5.39641609 9.86489502 5.39641609 9.86489502 5.41178894 10.91015625 C5.4427237 13.17186629 5.45968423 15.43345744 5.4765625 17.6953125 C5.49526592 19.26188182 5.5148387 20.82844099 5.5352478 22.39498901 C5.58666252 26.52132183 5.62623803 30.64768734 5.66339111 34.77416992 C5.70337241 38.9836441 5.75449146 43.19298118 5.8046875 47.40234375 C5.90155728 55.66396899 5.98592645 63.92566185 6.0625 72.1875 C6.75400146 72.21255615 7.44550293 72.2376123 8.15795898 72.26342773 C11.27217866 72.37902161 14.38606789 72.50191242 17.5 72.625 C18.58861328 72.66431641 19.67722656 72.70363281 20.79882812 72.74414062 C21.83330078 72.78603516 22.86777344 72.82792969 23.93359375 72.87109375 C24.89193115 72.90775146 25.85026855 72.94440918 26.83764648 72.98217773 C29.0625 73.1875 29.0625 73.1875 30.0625 74.1875 C30.21417148 76.14172866 30.28429996 78.10259729 30.3125 80.0625 C30.33828125 81.13242188 30.3640625 82.20234375 30.390625 83.3046875 C30.0625 86.1875 30.0625 86.1875 28.96826172 87.84716797 C26.09855651 89.86544642 23.71577096 89.54191599 20.2421875 89.515625 C19.58292267 89.51375183 18.92365784 89.51187866 18.24441528 89.50994873 C16.85413539 89.50323708 15.46387409 89.48933995 14.07373047 89.46875 C11.93829946 89.4375117 9.80360589 89.42777048 7.66796875 89.421875 C-2.77401465 89.35098535 -2.77401465 89.35098535 -3.9375 88.1875 C-4.03796803 85.48449701 -4.07366452 82.80701654 -4.06689453 80.10351562 C-4.06864685 79.25641525 -4.07039917 78.40931488 -4.07220459 77.5365448 C-4.07662409 74.72225934 -4.07368477 71.90803616 -4.0703125 69.09375 C-4.07098551 67.14701322 -4.07195551 65.20027653 -4.07321167 63.25354004 C-4.07468878 59.16787925 -4.07253368 55.08224029 -4.06787109 50.99658203 C-4.0621738 45.74703484 -4.06545274 40.49753878 -4.07144356 35.24799347 C-4.07504883 31.22641613 -4.07391074 27.20485101 -4.07131577 23.18327332 C-4.0706464 21.24708551 -4.07147525 19.31089661 -4.07379532 17.37471008 C-4.07632129 14.67360476 -4.07248205 11.97258341 -4.06689453 9.27148438 C-4.06891876 8.46313644 -4.07094299 7.65478851 -4.07302856 6.82194519 C-4.04774287 0.25836657 -4.04774287 0.25836657 0 0 Z " fill="#0B0402" transform="translate(242.9375,82.8125)"/>
<path d="M0 0 C3.0625 0.1875 3.0625 0.1875 5.0625 2.1875 C5.26126337 5.03737318 5.33517605 7.79008358 5.32128906 10.64111328 C5.3247937 11.51612991 5.32829834 12.39114655 5.33190918 13.29267883 C5.34074123 16.19780315 5.33486913 19.10268551 5.328125 22.0078125 C5.32947196 24.02603197 5.33141274 26.04425112 5.33392334 28.06246948 C5.33687719 32.30111772 5.33257127 36.53968184 5.32324219 40.77832031 C5.31189122 46.19871345 5.31837776 51.61890758 5.33038712 57.03929329 C5.33763604 61.21214275 5.33530312 65.38494556 5.33013153 69.55779648 C5.32880114 71.55518492 5.33042128 73.55257766 5.33509064 75.54996109 C5.3402008 78.35259339 5.33238087 81.15491053 5.32128906 83.95751953 C5.32533752 84.77653244 5.32938599 85.59554535 5.33355713 86.43937683 C5.27126114 94.98677568 2.9742218 102.04662386 -0.875 109.625 C-1.22240234 110.34365234 -1.56980469 111.06230469 -1.92773438 111.80273438 C-4.56558248 117.06352749 -4.56558248 117.06352749 -7.9375 118.1875 C-8.47164112 116.29537298 -8.98928329 114.39858364 -9.5 112.5 C-9.79003906 111.44425781 -10.08007812 110.38851562 -10.37890625 109.30078125 C-11.36780904 103.78920417 -9.75714048 100.81171039 -6.9375 96.1875 C-4.8510365 91.14318415 -4.6384276 86.71659985 -4.63452148 81.35229492 C-4.62608215 80.48495728 -4.61764282 79.61761963 -4.60894775 78.72399902 C-4.58326329 75.87198308 -4.57105456 73.02007035 -4.55859375 70.16796875 C-4.54241484 68.18352951 -4.52523443 66.1990982 -4.50709534 64.2146759 C-4.46148577 59.00208185 -4.42663229 53.78947722 -4.39489746 48.57678223 C-4.34293579 40.21541601 -4.27804858 31.85416561 -4.20668221 23.49294472 C-4.18378516 20.56742524 -4.16756014 17.64192073 -4.15196228 14.71635437 C-4.13856323 12.93614533 -4.1249491 11.15593789 -4.11108398 9.37573242 C-4.10716393 8.14694115 -4.10716393 8.14694115 -4.10316467 6.89332581 C-4.04143828 0.25796415 -4.04143828 0.25796415 0 0 Z " fill="#120604" transform="translate(222.9375,82.8125)"/>
<path d="M0 0 C4.53208936 0.53417927 8.36986435 1.46252312 12.625 3.0625 C20.24420578 5.31791614 27.64866951 5.37850746 35.5625 5.375 C36.7808252 5.37636963 37.99915039 5.37773926 39.25439453 5.37915039 C50.44099668 5.24577921 61.13493419 3.57815121 72 1 C71.62181194 3.37502103 71.32754946 4.68321929 69.57421875 6.37890625 C59.17618811 12.90189441 47.99986526 13.48408968 36 13.375 C34.72382813 13.38660156 33.44765625 13.39820313 32.1328125 13.41015625 C20.35150426 13.37401727 10.30383415 12.08652846 1.125 4.4375 C0 3 0 3 0 0 Z " fill="#0F0503" transform="translate(182,286)"/>
<path d="M0 0 C-0.23976562 1.23943359 -0.23976562 1.23943359 -0.484375 2.50390625 C-1.04868675 6.33011095 -1.22079563 10.078872 -1.25 13.9375 C-1.270625 14.61490234 -1.29125 15.29230469 -1.3125 15.99023438 C-1.37633507 24.31273156 2.38718069 31.0873506 8 37 C10.34930277 38.7389447 12.72635299 40.28718543 15.2421875 41.7734375 C15.82226562 42.17820312 16.40234375 42.58296875 17 43 C17 43.66 17 44.32 17 45 C9.97130435 45.80755227 5.18484856 44.84699834 -0.734375 40.91015625 C-6.65290045 35.92022704 -10.32530462 29.18363522 -11.3203125 21.5390625 C-11.81197982 13.90753066 -9.60753803 9.00885738 -5 3 C-2.34868421 0 -2.34868421 0 0 0 Z " fill="#0F0503" transform="translate(207,218)"/>
<path d="M0 0 C0.495 0.99 0.495 0.99 1 2 C-3.33269322 11.29104612 -10.51581284 19.01144211 -20.0625 23 C-31.64853781 26.12247828 -43.61265994 24.88083252 -54 19 C-56.56482207 17.45935602 -58.69764257 15.9360733 -61 14 C-61 13.34 -61 12.68 -61 12 C-59.39566191 12.47859241 -57.79153584 12.95789558 -56.1875 13.4375 C-55.29417969 13.70433594 -54.40085938 13.97117188 -53.48046875 14.24609375 C-51.64526945 14.80387873 -49.81966274 15.39344575 -48 16 C-39.0035255 16.7526522 -29.39636964 16.98296886 -20.91015625 13.65625 C-19 13 -19 13 -15 13 C-15 12.34 -15 11.68 -15 11 C-13.29565793 9.80696055 -11.53435284 8.69467749 -9.75 7.625 C-6.01806974 5.38386728 -2.96177279 3.20153535 0 0 Z " fill="#140705" transform="translate(303,184)"/>
<path d="M0 0 C0.66 0 1.32 0 2 0 C3.36048035 4.99303194 4.69297166 9.99270879 6 15 C6.46212891 16.76923828 6.46212891 16.76923828 6.93359375 18.57421875 C8.49764744 24.89778512 9.33118539 30.48668727 9 37 C3.72 37 -1.56 37 -7 37 C-5.86897059 24.14739302 -3.59548379 12.37834497 0 0 Z " fill="#C84A36" transform="translate(188,105)"/>
<path d="M0 0 C0.61875 0.66 1.2375 1.32 1.875 2 C2.90738979 3.00957455 3.95060851 4.00810941 5 5 C5.64710938 5.61617187 6.29421875 6.23234375 6.9609375 6.8671875 C18.52177045 17.00757681 32.33435527 20.83085779 47.375 21.5625 C48.62216797 21.62727539 48.62216797 21.62727539 49.89453125 21.69335938 C51.92953228 21.79861805 53.96474703 21.89973072 56 22 C47.86085209 28.34427031 40.06928132 28.80109199 30 28 C19.9101636 26.45760463 12.79625151 21.85338883 6.38671875 14.00390625 C0 4.77464789 0 4.77464789 0 0 Z " fill="#0E0503" transform="translate(143,178)"/>
<path d="M0 0 C-0.33 1.98 -0.66 3.96 -1 6 C-1.99 6 -2.98 6 -4 6 C-6.17032476 7.43990623 -6.17032476 7.43990623 -8 9 C-6.68994234 5.06982701 -4.75047804 0 0 0 Z " fill="#33120D" transform="translate(207,218)"/>
<path d="M0 0 C1.08892712 2.83121051 0.96109941 4.16532751 0.25 7.1875 C-0.36875 8.5796875 -0.36875 8.5796875 -1 10 C-1.99 10.33 -2.98 10.66 -4 11 C-3.52269162 9.5410574 -3.04308958 8.08286504 -2.5625 6.625 C-2.29566406 5.81289062 -2.02882812 5.00078125 -1.75390625 4.1640625 C-1 2 -1 2 0 0 Z " fill="#9D3B2A" transform="translate(225,184)"/>
<path d="M0 0 C3.3 0.99 6.6 1.98 10 3 C8.02 3.99 8.02 3.99 6 5 C2.75 3.625 2.75 3.625 0 2 C0 1.34 0 0.68 0 0 Z " fill="#491B13" transform="translate(242,196)"/>
</svg>
