<svg xmlns="http://www.w3.org/2000/svg" width="400" height="400" viewBox="35 35 300 300">
    <g transform="translate(50,50) scale(1.5)">
  
  <path d="M 85.5 0 L 74.199219 19.800781 C 43.399219 26.700781 20.099609 53.199609 18.099609 85.599609 L 36.199219 85.599609 C 38.399219 59.299609 59.3 38.399219 85.5 36.199219 L 85.5 0 z M 90 42.800781 L 84.400391 77 L 95.599609 84.5 L 103.09961 95.699219 L 137.30078 90 L 103.09961 84.400391 L 117.90039 62.199219 L 95.699219 77 L 90 42.800781 z M 77 84.400391 L 42.800781 90.099609 L 77 95.699219 L 62.199219 117.90039 L 84.300781 103.09961 L 90 137.30078 L 95.699219 103.09961 L 84.5 95.599609 L 77 84.400391 z M 143.90039 94.599609 C 141.70039 120.79961 120.79961 141.70039 94.599609 143.90039 L 94.599609 180.19922 L 105.90039 160.40039 C 136.70039 153.50039 160 126.99961 162 94.599609 L 143.90039 94.599609 z " style="fill:#4db05b"/>
  <path d="M 94.599609 18.099609 L 94.599609 36.199219 C 120.79961 38.399219 141.70039 59.3 143.90039 85.5 L 180.19922 85.5 L 160.40039 74.199219 C 153.50039 43.399219 126.99961 20.099609 94.599609 18.099609 z M 62.199219 62.199219 L 84.5 95.599609 L 117.90039 117.90039 L 95.599609 84.5 L 62.199219 62.199219 z M 90 86.099609 C 92.1 86.099609 93.900391 87.9 93.900391 90 C 93.900391 92.1 92.2 93.900391 90 93.900391 C 87.8 93.900391 86.099609 92.1 86.099609 90 C 86.099609 87.8 87.9 86.099609 90 86.099609 z M 0 94.599609 L 19.800781 105.90039 C 26.700781 136.70039 53.199609 160 85.599609 162 L 85.599609 143.90039 C 59.299609 141.70039 38.399219 120.79961 36.199219 94.599609 L 0 94.599609 z " style="fill:#003a40"/>
    </g>
</svg>