<svg xmlns="http://www.w3.org/2000/svg" viewBox="-50 -50 400 400" height="500" width="500">
  <defs>
    <style>
      .cls-1 {
        fill: #fff;
      }

      .cls-2 {
        fill: #336791;
      }
    </style>
  </defs>
  <g id="Layer_1" data-name="Layer 1">
    <g id="VWUH2j">
      <g>
        <path class="cls-2" d="m88.7,103.93c.94.63,2.99,1.63,3.91,1.7.31.02.72.24.89-.16.17-.4-.2-.6-.5-.72-.57-.22-1.93-1.3-1.93-1.86.31-.16,1.61.65,1.75.79,1.42,1.45,3.06,1.37,4.81.75.38-.14.59-.37.85-.65,2.64-2.81,5.57-5.25,9.53-5.78,3.01-.41,5.91.21,8.65,1.68,4.39,2.36,8.77,4.71,12.58,7.98,1.81,1.56,3.36,3.34,4.21,5.62.21.57.55.61,1.02.64,2.11-.26,3.61-.68,5.33-.3,1.41.31,2.24.25,3.21,1.02,2.03,1.61,3.81,3.43,5.44,5.45,4.09,5.07,8.49,9.89,12.38,15.12,1.61,2.16,3.18,4.36,4.7,6.59,1.64,2.41,1.89,5.19,1.83,7.99-.03,1.37-1.04,2.31-2.08,3.11-1.42,1.08-2.85,2.15-4.29,3.2-.81.59-.75,1.05.09,1.57,5.1,3.16,9.46,7.14,13.13,11.88,2.97,3.83,5.18,8.09,6.93,12.6,2.73,7.03,3.81,14.37,4.3,21.86.37,5.63.37,11.28.93,16.9.39,3.92,3.64,6.83,8.14,7.07,3.62.19,7.1-.38,10.4-1.91.62-.29,1.31-.56,1.84.06.56.67.18,1.36-.3,1.9-2.86,3.25-6.36,5.27-10.79,5.38-3.42.08-6.69-.71-9.76-2.13-1.74-.81-3.1-.64-4.73.25-6.64,3.6-13.49,6.75-20.54,9.46-6.82,2.62-13.79,4.72-21.04,5.8-.41.06-.83.08-1.24.1-3.18.14-6.33.16-9.5.91-4.42,1.05-7.93-.97-10.68-4.34-.64-.78-1.09-.92-2.07-.64-3.98,1.15-7.98.67-11.93-.22-5.16-1.17-10.01-3.22-14.84-5.31-.97-.42-1.68-1.1-1.53-2.3.1-.81-.22-1.13-1.05-1.08-.87.05-1.75-.06-2.61.02-1.54.15-2.51-.49-2.23-2.59.56-4.14,1.91-8.06,4.24-11.58.46-.7.67-1.36.67-2.19-.02-13.95-.05-27.9.01-41.85.02-4.48.43-8.94,1.06-13.38.12-.82.26-1.65.66-2.39.52-.97.12-1.43-.8-1.74-1.77-.6-3.51-1.26-5.15-2.18-5.41-3.05-9.75-7.26-13.48-12.19-.81-1.07-1.44-2.09-1.27-3.49.12-1.01-.96-1.53-1.16-2.41-.25-1.08-1.06-1.07-1.92-1.31-9.31-2.66-18.17-6.19-24.82-13.66-2.88-3.23-4.74-7.08-6.33-11.07-2.27-5.69-3.18-11.6-2.5-17.68.77-6.88,3.73-12.86,8.11-18.14,3.3-3.99,7.18-7.36,11.59-10.09.82-.51.75-1.43,1.17-2.1.79-1.27.23-1.84-.77-2.66-4.71-3.85-7.34-8.87-8.08-14.92-.52-4.26.47-8.17,2.14-12.06,1.97-4.59,5.31-7.78,9.59-10.02,5.41-2.83,11.13-3.02,16.91-1.36,6.05,1.74,10.5,5.53,13.49,11.04,1.93,3.56,2.66,7.43,2.34,11.43-.72,9.08-5.34,15.49-13.66,19.2-1.4.62-2.86,1.09-4.38,1.36-.42.07-.85.07-.82.68.08,1.48-.91,2.11-2.07,2.62-1.87.81-3.82,1.47-5.83,1.72-3.14.4-5.87,1.54-8.36,3.5-3.63,2.87-6.85,6.08-8.62,10.43-2.24,5.5-1.65,10.89,1.13,16.06,3.43,6.38,8.29,11.48,14.25,15.53,2.71,1.84,5.75,2.92,9.1,2.89,1.96-.02,2.17-.18,2.63-2.02.21-.84.5-1.67.87-2.45,1.46-3.04,4.35-3.66,6.93-1.46.61.52.83.71,1.24-.23,1.11-2.56,3.59-3.95,6.42-3.75.52.04,1.03.07,1.36-.38.79-1.07,1.84-1.77,2.99-2.38.54-.28.85-.61-.02-.95-.38-.15-1.9-1.05-2.07-1.78Zm40.38,68.27s0-.03,0-.05c.58,0,1.16,0,1.74,0,.21,0,.41-.07.62-.09,4.93-.37,8.92-2.88,12.84-5.57,6.82-4.68,12.85-10.37,19.61-15.12.55-.38,1.2-.84,1.24-1.5.12-2.15.21-4.39-1.29-6.15-1.43-1.67-3.02-3.2-4.63-4.7-3.63-3.41-7.15-6.93-10.94-10.17-3.03-2.58-5.92-5.33-9.23-7.57-1.49-1.01-3.03-1.24-4.73-.82-1.91.47-3.6,1.48-5.42,2.16-1.26.47-1.73,1.27-1.56,2.69.85,6.82-1.8,12.6-5.62,17.94-2.3,3.22-5.2,5.92-8.24,8.45-.65.54-.76,1.05-.44,1.83.7,1.68,1.36,3.4,1.53,5.23.06.62.27.93.85,1.16,2.22.86,3.82,2.37,4.87,4.55.77,1.6,1.99,3.01,2.61,4.66,1.02,2.74,3.13,3.09,5.56,3.09.21,0,.42,0,.62,0Zm10.52,57.4c-.06-5.84-1.04-8.89-3.9-12.14-3.88-4.41-10.57-5.12-14.87.1-3.15,3.83-4.54,8.32-4.08,13.31.09.98.33,1.96.5,2.93.77,4.38,2.91,7.8,6.97,9.86.59.3,1.2.57,1.87.64,3.41.36,6.31-.92,8.73-3.13,3.46-3.15,5.17-7.13,4.79-11.59ZM86.26,43.81c.03-2.04-.11-4.05-.69-6.03-2.45-8.26-10.93-15.51-21.1-14.67-.66.05-.95.16-.94.92.02,1.14-.43,1.35-1.49.88-.59-.26-.93-.82-1.45-1.16-.45-.3-.78-.12-1.02.31-.23.42-.1.73.3.92.26.12.56.15.83.25.44.16.68.47.64.95-.04.47-.3.82-.75.87-.7.07-1.54.26-2.07-.15-1.18-.93-1.99-.27-2.76.47-.5.48-.96.72-1.65.58-.48-.1-.99-.08-1.49-.09-.32,0-.69-.04-.71.46-.01.41.2.63.56.7.28.06.58.08.87.06,1.04-.06,1.75.28,1.98,1.41.1.52.35,1.03.78,1.39.52.43.92.39,1.01-.37.04-.29,0-.58,0-.87,0-1.42.64-2.01,2.07-1.99.87.01,1.58.47,2.38.68,2.24.59,2.76,1.67,1.73,3.75-.43.88-.46,1.54.34,2.17.35.28.61.68.96.97.7.59.87,1.29.52,2.11-.39.91-.82,1.81-1.22,2.72-.42.95-.38,2.16-1.61,2.63-.29.11-.25.46.03.59,1.24.57,1.48,1.63,1.46,2.84,0,.33.41.81-.19.9-.48.08-.5-.42-.57-.8-.34-1.89-1.98-2.81-3.81-2.18-.43.15-.64.4-.55.82.13.6.23,1.19.74,1.66,1.34,1.25,2.93,1.65,4.7,1.56.52-.02.76-.27.75-.77,0-.93.53-1.17,1.37-1.18,3.28,0,6.56-.04,9.84-.06.5,0,1.01.03,1.42.36.63.5,1.35.56,2.11.56,1.81,0,2.87.84,3.14,2.66.12.81.46,1.15,1.22,1.27.85.13,1.04-.42,1.28-1.03.9-2.29.97-4.69,1.01-7.1Zm-26.6,7.12c-3.37-.19-3.34-.37-6.26-2.53-1.64-1.21-2.94-2.53-4.07-4.23-1.56-2.33-2.51-4.61-1.56-7.4.1-.3.04-.66.05-.99.03-.64-.14-1.2-.82-1.36-.75-.18-.85.53-1.08.96-.87,1.6-.97,3.41-1.35,5.14-.85,3.82-.35,7.53,1,11.08,1.12,2.96,2.97,5.55,5.3,7.74,1.15,1.08,2.51,1.85,4.12,1.79,1.07-.04,2.06.15,2.74.89,1.87,2.04,4.54,1.78,6.85,2.54.25.08.48.08.71-.09,1.92-1.45,3.64-3.12,5.09-5.04.65-.86.49-2.5-.22-2.96-1.32-.84-2.29-2.03-3.4-3.09-.66-.64-1.08-1.35-1.02-2.3.02-.32.05-.8-.35-.84-1.14-.1-2.41-.45-3.39.18-.8.51-1.51.56-2.33.5Zm55.19,50.4c-.26-.12-.54-.2-.84-.31-.31.12-.61.24-.91.37-1.24.53-2.21,1.46-3.29,2.22-.67.47-.72.68.13,1.12,3.36,1.7,6.68,3.5,9.5,6.07,1.64,1.49,3.03,3.16,4.32,4.95.36.5.71,1.45,1.61.91,1.69-1.01,3.49-1.69,5.4-2.14.73-.17.9-.52.52-1.24-1.12-2.15-2.81-3.79-4.72-5.21m-31.38,125.97c0-.66.06-1.33-.01-1.98-.11-1.02-.61-1.65-1.77-1.63-1.75.04-2.84.9-3.11,2.57-.26,1.62.3,2.31,2.3,2.89q2.66.77,2.6-1.85Zm5.56.74h0c0-1.03.01-2.07,0-3.1-.01-.94-.52-1.33-1.44-1.28-.95.06-1.75.86-1.83,2.01-.09,1.48-.09,2.98-.12,4.46,0,.34.01.72.37.85.85.31,1.71.62,2.59.83.56.13.41-.39.41-.67.02-1.03,0-2.07,0-3.1Zm5.99,2.96c0-.37.03-.75,0-1.11-.16-1.45-.4-2.87-1.45-3.99-.41-.43-.95-.77-1.54-.57-.6.21-.58.84-.6,1.38-.06,1.11-.09,2.23-.18,3.34-.16,1.99-.17,1.98,1.76,2.48q2.06.52,2.02-1.52Zm-20.89-6.94c2.13.04,2.34-.15,2.37-2.07.02-1.25-.87-2.8-1.59-2.77-1.24.05-2.35,1.85-2.47,3.71-.1,1.58,1.04.97,1.68,1.12Zm18.51-126.91c.64-.25,1.7.48,2.26-.42.65-1.05,1.51-1.85,2.42-2.62.23-.2.63-.39.44-.78-.15-.3-.52-.17-.79-.18-2.79-.1-4.36,2.29-6.61,3.31-.39.18-.12.67.38.7.58.02,1.16,0,1.9,0Zm36.06,109.82c-1.28,0-2.88.82-2.86,1.49.02.65,1.75,2.35,2.38,2.33.77-.02,1.61-1.4,1.66-2.65.04-.86-.34-1.23-1.18-1.17Zm-59.03-99.72c.07.24-.03.71.57.8,1.04.16,3.27-.98,3.67-1.92.2-.46.35-.96-.26-1.27-1.57-.81-3.94.54-3.98,2.4ZM58.27,24.14c-1.46.23-2.77.47-3.83,1.43-.38.34-.61.76-.25,1.18.4.47.76,0,1.02-.26.6-.6,1.33-.96,2.1-1.25.43-.16.84-.35.96-1.1Zm76.88,186.75c-.66-.03-1.26.22-1.34,1.19-.05.65.52,1.03,1.17.99.75-.04,1.5-.41,1.51-1.18.01-.74-.67-1.12-1.34-1Zm8.03,9.34c-.14-.46-.5-.76-1.02-.74-.76-.09-.66.56-.58,1.05.07.48.28.8.74.84.49.04,1.2-.41.85-1.14Z"/>
        <path class="cls-1" d="m98.5,130.6c-1.06.13-2-.43-2.35-1.37-.38-1.04-.63-2.32.24-3.31,2.07-2.38,3.92-2.53,6.69-1.8.89.23,1.05,1.1.95,1.94-.29,2.48-2.72,4.5-5.53,4.55Zm-.42-2.16c1.35,0,2.5-.74,3.34-2.07.25-.39.56-.8.34-1.25-.26-.54-.86-.49-1.31-.38-1.27.29-2.39.88-3.22,1.93-.2.26-.47.54-.34.88.16.41.66.86,1.18.89Zm1.96.67c1.25-.16,2.23-.71,2.8-1.87.14-.29.29-.69-.04-.91-.31-.21-.5.18-.69.37-.75.74-1.28,1.68-2.07,2.41Z"/>
        <path class="cls-2" d="m107.95,120.3c1.04.15,1.27.98,1.56,1.75.06.15,0,.34-.19.39-.26.06-.39-.15-.43-.33-.13-.69-.48-1.26-.94-1.8Z"/>
        <path class="cls-2" d="m107.19,123.37c-.44-.68-.34-1.52-.83-2.16-.11-.14-.09-.33.13-.36.1-.02.29.05.31.12.25.78.71,1.53.4,2.4Z"/>
      </g>
    </g>
  </g>
  <g id="Layer_3" data-name="Layer 3">
    <path class="cls-1" d="m83.25,139.94c-2.34-.8-4.42-2.23-5.01-4.28-.05-.52-.06-.66-.16-.98-.33-1.02-2.03-.91-1.96.26.02.33.08.64.14.94.12.74-.16,1.29-1.04,1.63l-2.33.33c-.79.06-1.51.02-2.24-.04-1.63-.14-3.63-.6-5.1-.97-.48-.12-.4.47-.51.84-.19.27-.24.62,0,.99.63.99.9,2.03.85,3.19-.02.51.47,1.03,1,1,2.96-.18,5.9-.71,8.72-1.63,1.1-.36,2.55-1.31,3.7-.88,1.1.41,1.94,1.24,3.15,1.41.5.07.96-.08,1.17-.58.18-.42.06-1.08-.41-1.24Z"/>
    <path class="cls-1" d="m92.93,105.12h-.02c.07.05.15.11.22.17v-.02c0,.06.03.13.04.19v-.02c-.01.06-.03.13-.05.19l-.03.04-.27.11h.02c-.06-.02-.13-.04-.19-.05l-.09-.1v.05s.04.09.05.13c.02.07.04.14.06.21.05.15.1.3.15.44.12.31.25.62.41.92.3.57.68,1.1,1.12,1.58.33.36.86-.17.53-.53-.54-.59-.98-1.28-1.28-2.02-.08-.19-.14-.38-.2-.57s-.08-.42-.18-.59c-.15-.24-.48-.32-.69-.1-.22.23-.12.6.18.7.46.14.66-.58.2-.72h0Z"/>
    <path class="cls-1" d="m105.3,120.02s-.07.03-.11.03c.07,0,0,0-.03-.01.06.02,0-.01-.02-.02.02,0,.05.03.06.04.05.03.02.02,0,0,.02.02.04.04.06.06s.04.04.05.06c-.03-.04-.03-.04,0,0,.03.05.06.1.09.15.02.04.02.04,0,0,0,.03.02.05.03.08.05.14.09.29.12.43.03.14.06.27.08.41,0,0,.02.1.01.06s0,.06,0,.06c0,.07.01.14.02.21.02.29.02.58,0,.87-.02.26.24.51.5.5.29-.01.48-.22.5-.5.06-.73-.02-1.49-.23-2.19-.1-.33-.25-.66-.51-.89-.14-.13-.3-.23-.48-.28-.23-.06-.44-.01-.65.08-.24.1-.31.48-.18.68.16.25.43.29.68.18h0Z"/>
    <path class="cls-1" d="m106.76,118.75l.02-.02s.03-.03,0,0c-.03.02-.03.03-.01.01.02-.01.02-.01-.02,0-.09.03.03,0,.03,0,0,.02-.12,0-.04,0,.1.02-.07-.03-.02,0,0,0,.08.01.08.02,0,0-.1-.06-.03-.01.02.01.08.07.03.02-.05-.06.03.04.03.04.04.04.01.02,0-.01.03.05.06.1.09.15.02.05.03.07,0,0,0,.02.02.05.03.07.02.07.04.13.06.2.08.28.15.56.19.85,0,.04.01.08.02.12.01.09-.01-.12,0,.04,0,.07.02.14.02.22.01.15.02.31.03.46,0,.26.23.51.5.5s.51-.22.5-.5c-.02-.74-.12-1.53-.39-2.22-.15-.39-.39-.73-.79-.88-.35-.13-.8-.06-1.05.23-.17.2-.21.51,0,.71.19.17.53.21.71,0h0Z"/>
    <path class="cls-1" d="m129.66,211.88c2.22-2.65,6.09-2.6,9.25-2.78,2.05-.12,4.1-.19,6.16-.15,1.88.04,3.78.04,5.55-.69,1.17-.48.66-2.42-.53-1.93-1.93.79-3.96.61-6,.6-2.26-.01-4.53.12-6.79.26-3.23.2-6.55,1.85-8.77,4.49-.82.98.29,1.19,1.12.2h0Z"/>
    <path class="cls-1" d="m145.63,208.03c.4-.52.92-1.02,1.41-1.48.46-.43.99-.97,1.45-1.29.57-.4.97-.58,1.6-.78.67-.21,1.36-.43,1.95-.82.45-.3.64-.88.36-1.37-.26-.45-.84-.47-1.37-.36-.88.18-1.14.32-1.74.7-.83.54-1.23.99-1.74,1.56-1.33,1.49-1.93,2.05-3.65,2.82-.49.22-.07,1.12.36,1.37.52.3,1.04.07,1.37-.36h0Z"/>
    <path class="cls-1" d="m142.93,207.92c-.65.44-.16,1.15.13,1.65.31.54.65,1.06,1.01,1.56.73,1.02,1.56,1.96,2.47,2.82.47.44,1.18-.27.71-.71-.75-.71-1.52-1.48-2.17-2.28-.37-.46-.55-.72-.99-1.26-.35-.43-.53-.7-.66-.92-.06-.1.35.04.29-.07-.03-.05-.07-.16-.11-.2-.08-.07.1-.11-.05.12l-.18.18.05-.03c.53-.36.03-1.23-.5-.86h0Z"/>
    <g>
      <path class="cls-2" d="m3.03,65.56V6.46h19.13c6.67,0,11.44,1.2,14.29,3.61,2.85,2.41,4.28,6.44,4.28,12.08,0,6.39-1.91,11.36-5.73,14.91-3.82,3.55-9.16,5.33-16.03,5.33h-4.74v23.16H3.03Zm11.19-31.27h2.22c3.9,0,6.99-.98,9.25-2.94,2.26-1.96,3.39-4.61,3.39-7.97,0-5.88-3.47-8.83-10.42-8.83h-4.45v19.73Z"/>
      <path class="cls-2" d="m90.54,64.16v-8.67c5.06,2.45,9.39,3.67,12.98,3.67,4.19,0,6.28-1.65,6.28-4.95,0-2.13-1.73-3.99-5.18-5.59l-3.45-1.6c-3.75-1.76-6.43-3.65-8.04-5.67-1.61-2.02-2.42-4.53-2.42-7.51,0-4.15,1.37-7.38,4.11-9.68,2.74-2.3,6.57-3.45,11.49-3.45,3.08,0,6.75.52,11.01,1.56v8.31c-4.1-1.65-7.49-2.48-10.18-2.48-4.23,0-6.35,1.52-6.35,4.55,0,2,1.56,3.69,4.69,5.07l2.97,1.32c4.44,1.94,7.53,3.91,9.27,5.91,1.74,2,2.61,4.57,2.61,7.71,0,4.13-1.48,7.47-4.44,10.04-2.96,2.57-6.81,3.85-11.55,3.85s-9.16-.8-13.81-2.4Z"/>
      <path class="cls-2" d="m149.52,65.32c-2.44.83-4.36,1.24-5.76,1.24-8.86,0-13.29-4.79-13.29-14.38v-23.08h-4.25v-7.39h4.25v-7.39l10.22-.14v7.53l10.03.13v7.39l-10.03-.13v21.52c0,5.38,1.9,8.07,5.7,8.07.87,0,1.92-.19,3.14-.56v7.19Z"/>
      <path class="cls-2" d="m202.73,64.16c-6.85,1.92-12.77,2.88-17.75,2.88-9.44,0-16.7-2.68-21.77-8.05-5.07-5.36-7.6-13.05-7.6-23.06s2.53-17.57,7.6-22.92c5.07-5.35,12.28-8.03,21.65-8.03,5.99,0,11.93.76,17.83,2.28v9.62c-6.83-2.53-12.44-3.79-16.83-3.79-5.79,0-10.27,2-13.43,5.99-3.16,3.99-4.73,9.65-4.73,16.97s1.69,12.64,5.07,16.67c3.38,4.03,8.04,6.05,13.98,6.05,1.31,0,2.83-.2,4.59-.6v-19.45h11.39v25.44Z"/>
      <path class="cls-2" d="m212.87,65.56V6.46h10.63v59.1h-10.63Z"/>
      <path class="cls-2" d="m231.82,65.04v-10.14c5.76,2.66,10.69,3.99,14.79,3.99,2.87,0,5.13-.71,6.78-2.12,1.65-1.41,2.48-3.33,2.48-5.75,0-1.92-.52-3.53-1.55-4.85-1.04-1.32-3-2.88-5.89-4.69l-3.58-2.2c-4.8-2.98-8.18-5.84-10.16-8.57-1.98-2.73-2.97-5.92-2.97-9.56,0-4.87,1.62-8.79,4.86-11.74,3.24-2.95,7.53-4.43,12.85-4.43,4.27,0,9.07.68,14.43,2.04v9.46c-5.47-2.26-9.8-3.39-12.98-3.39-2.46,0-4.43.61-5.91,1.82-1.48,1.21-2.22,2.8-2.22,4.77,0,1.62.52,3.05,1.55,4.27,1.04,1.23,2.99,2.73,5.86,4.51l3.83,2.36c5.16,3.19,8.71,6.14,10.67,8.82,1.95,2.69,2.93,5.96,2.93,9.82,0,5.48-1.84,9.78-5.53,12.9-3.69,3.11-8.77,4.67-15.26,4.67-4.29,0-9.28-.67-14.97-2Z"/>
    </g>
    <g>
      <path class="cls-2" d="m11.81,274c-1.4,0-3.18-.31-5.35-.92v-2.94c2.34,1.09,4.27,1.64,5.77,1.64,1.16,0,2.1-.31,2.8-.92.71-.61,1.06-1.42,1.06-2.42,0-.82-.23-1.52-.7-2.09-.46-.57-1.32-1.21-2.56-1.92l-1.43-.83c-1.77-1.02-3.02-1.98-3.74-2.88-.73-.9-1.09-1.95-1.09-3.14,0-1.61.58-2.94,1.74-3.98,1.16-1.04,2.64-1.56,4.44-1.56,1.6,0,3.29.27,5.07.8v2.71c-2.19-.87-3.83-1.3-4.9-1.3s-1.86.27-2.53.82-1,1.23-1,2.06c0,.7.24,1.31.73,1.85.49.54,1.38,1.18,2.67,1.92l1.49.85c1.8,1.03,3.05,2,3.77,2.91.71.91,1.07,2.01,1.07,3.29,0,1.82-.67,3.28-2,4.38s-3.1,1.65-5.3,1.65Z"/>
      <path class="cls-2" d="m23.32,279.06v-20.92h2.77v2.88c1.13-2.15,2.83-3.22,5.1-3.22,1.84,0,3.28.67,4.33,2.02s1.58,3.19,1.58,5.52c0,2.54-.6,4.59-1.79,6.15s-2.77,2.34-4.71,2.34c-1.81,0-3.31-.7-4.51-2.09v7.32h-2.77Zm2.77-9.24c1.42,1.28,2.78,1.92,4.07,1.92,2.66,0,3.99-2.04,3.99-6.12,0-3.6-1.18-5.4-3.54-5.4-1.55,0-3.05.84-4.52,2.53v7.06Z"/>
      <path class="cls-2" d="m49.3,271.53c-1.66,1.54-3.25,2.3-4.79,2.3-1.26,0-2.31-.4-3.15-1.19-.83-.79-1.25-1.8-1.25-3.02,0-1.68.7-2.96,2.1-3.86s3.41-1.35,6.02-1.35h.66v-1.85c0-1.78-.91-2.67-2.73-2.67-1.46,0-3.04.45-4.73,1.36v-2.3c1.86-.76,3.61-1.14,5.24-1.14s2.96.39,3.77,1.16c.81.77,1.22,1.97,1.22,3.6v6.95c0,1.59.49,2.39,1.46,2.39.12,0,.3-.02.53-.06l.2,1.54c-.63.3-1.32.45-2.08.45-1.29,0-2.12-.77-2.47-2.3Zm-.41-1.51v-3.97l-.93-.03c-1.52,0-2.75.29-3.68.87s-1.4,1.34-1.4,2.28c0,.67.23,1.23.7,1.7.47.46,1.04.69,1.71.69,1.15,0,2.35-.51,3.6-1.54Z"/>
      <path class="cls-2" d="m61.9,273.83c-1.41,0-2.5-.41-3.29-1.21-.79-.81-1.18-1.94-1.18-3.38v-9.01h-1.91v-2.09h1.91v-3.05h2.77v3.05h3.99v2.09h-3.99v8.5c0,2.01.86,3.01,2.59,3.01.37,0,.81-.06,1.33-.18v1.92c-.85.24-1.59.35-2.22.35Z"/>
      <path class="cls-2" d="m68.08,255.36v-2.78h2.77v2.78h-2.77Zm0,18.12v-15.34h2.77v15.34h-2.77Z"/>
      <path class="cls-2" d="m84.27,271.53c-1.66,1.54-3.25,2.3-4.79,2.3-1.26,0-2.31-.4-3.15-1.19-.83-.79-1.25-1.8-1.25-3.02,0-1.68.7-2.96,2.1-3.86s3.41-1.35,6.02-1.35h.66v-1.85c0-1.78-.91-2.67-2.73-2.67-1.46,0-3.04.45-4.73,1.36v-2.3c1.86-.76,3.61-1.14,5.24-1.14s2.96.39,3.77,1.16c.81.77,1.22,1.97,1.22,3.6v6.95c0,1.59.49,2.39,1.46,2.39.12,0,.3-.02.53-.06l.2,1.54c-.63.3-1.32.45-2.08.45-1.29,0-2.12-.77-2.47-2.3Zm-.41-1.51v-3.97l-.93-.03c-1.52,0-2.75.29-3.68.87s-1.4,1.34-1.4,2.28c0,.67.23,1.23.7,1.7.47.46,1.04.69,1.71.69,1.15,0,2.35-.51,3.6-1.54Z"/>
      <path class="cls-2" d="m92.29,273.48v-22.3h2.77v22.3h-2.77Z"/>
      <path class="cls-2" d="m109.63,273.48v-20.91h5.66c2.51,0,4.31.43,5.41,1.28,1.1.85,1.64,2.25,1.64,4.2,0,2.22-.75,3.96-2.25,5.23-1.5,1.26-3.58,1.89-6.24,1.89h-1.31v8.31h-2.92Zm2.92-10.55h1.19c1.75,0,3.1-.41,4.06-1.21s1.43-1.95,1.43-3.43c0-1.25-.38-2.15-1.12-2.68-.75-.54-2-.81-3.75-.81h-1.81v8.14Z"/>
      <path class="cls-2" d="m131.59,273.83c-2.18,0-3.93-.73-5.23-2.18-1.3-1.46-1.95-3.4-1.95-5.84s.65-4.42,1.96-5.86c1.31-1.44,3.08-2.15,5.32-2.15s4.01.72,5.32,2.15,1.96,3.38,1.96,5.83-.66,4.47-1.97,5.9-3.11,2.15-5.41,2.15Zm.04-2.09c2.93,0,4.4-1.99,4.4-5.96s-1.45-5.89-4.34-5.89-4.33,1.97-4.33,5.92,1.42,5.93,4.27,5.93Z"/>
      <path class="cls-2" d="m147.34,273.83c-1.26,0-2.8-.3-4.61-.89v-2.56c1.81.9,3.38,1.36,4.72,1.36.8,0,1.46-.22,1.98-.65.52-.43.79-.97.79-1.62,0-.95-.74-1.74-2.21-2.36l-1.62-.69c-2.39-1-3.58-2.43-3.58-4.31,0-1.34.47-2.39,1.41-3.16s2.23-1.15,3.87-1.15c.85,0,1.91.12,3.16.35l.58.11v2.32c-1.54-.46-2.77-.69-3.68-.69-1.78,0-2.67.65-2.67,1.95,0,.84.67,1.54,2.02,2.12l1.33.56c1.51.64,2.58,1.32,3.2,2.03s.94,1.6.94,2.66c0,1.35-.53,2.45-1.59,3.32s-2.41,1.3-4.06,1.3Z"/>
      <path class="cls-2" d="m162.55,273.83c-1.41,0-2.5-.41-3.29-1.21-.79-.81-1.18-1.94-1.18-3.38v-9.01h-1.91v-2.09h1.91v-3.05h2.77v3.05h3.99v2.09h-3.99v8.5c0,2.01.86,3.01,2.58,3.01.37,0,.81-.06,1.33-.18v1.92c-.85.24-1.59.35-2.22.35Z"/>
      <path class="cls-2" d="m168.78,278.58l.32-2.42c1.6.76,3.18,1.14,4.74,1.14,3.12,0,4.68-1.66,4.68-4.99v-2.42c-1.02,2.15-2.7,3.22-5.03,3.22-1.83,0-3.28-.67-4.36-2.01-1.08-1.34-1.62-3.14-1.62-5.41s.61-4.24,1.84-5.71c1.23-1.47,2.81-2.2,4.76-2.2,1.71,0,3.17.7,4.4,2.09v-1.75h2.78v11.16c0,2.4-.12,4.18-.37,5.33s-.71,2.1-1.4,2.83c-1.21,1.29-3.09,1.94-5.63,1.94-1.78,0-3.48-.27-5.11-.82Zm9.74-10.41v-6.37c-1.22-1.27-2.54-1.91-3.98-1.91-1.27,0-2.27.51-2.99,1.54-.72,1.03-1.08,2.43-1.08,4.22,0,3.36,1.17,5.04,3.53,5.04,1.6,0,3.11-.84,4.52-2.53Z"/>
      <path class="cls-2" d="m186.67,273.48v-15.34h2.77v2.88c1.1-2.15,2.69-3.22,4.78-3.22.28,0,.58.02.88.07v2.6c-.48-.16-.9-.24-1.26-.24-1.75,0-3.22,1.04-4.4,3.14v10.11h-2.77Z"/>
      <path class="cls-2" d="m209.63,272.98c-1.85.56-3.44.85-4.76.85-2.25,0-4.08-.75-5.5-2.25-1.42-1.5-2.13-3.45-2.13-5.84s.62-4.23,1.88-5.72c1.25-1.49,2.85-2.23,4.8-2.23,1.85,0,3.27.66,4.28,1.98,1.01,1.32,1.51,3.19,1.51,5.62v.86h-9.64c.4,3.64,2.18,5.47,5.33,5.47,1.15,0,2.57-.31,4.24-.93v2.2Zm-9.44-8.83h6.73c0-2.85-1.06-4.28-3.17-4.28s-3.31,1.43-3.55,4.28Z"/>
      <path class="cls-2" d="m218.47,274c-1.4,0-3.18-.31-5.35-.92v-2.94c2.34,1.09,4.27,1.64,5.77,1.64,1.16,0,2.1-.31,2.8-.92.71-.61,1.06-1.42,1.06-2.42,0-.82-.23-1.52-.7-2.09s-1.32-1.21-2.56-1.92l-1.43-.83c-1.77-1.02-3.02-1.98-3.74-2.88-.73-.9-1.09-1.95-1.09-3.14,0-1.61.58-2.94,1.74-3.98,1.16-1.04,2.64-1.56,4.44-1.56,1.6,0,3.29.27,5.07.8v2.71c-2.19-.87-3.83-1.3-4.9-1.3-1.02,0-1.86.27-2.53.82s-1,1.23-1,2.06c0,.7.24,1.31.73,1.85.49.54,1.38,1.18,2.67,1.92l1.49.85c1.8,1.03,3.05,2,3.77,2.91.71.91,1.07,2.01,1.07,3.29,0,1.82-.67,3.28-2,4.38s-3.1,1.65-5.3,1.65Z"/>
      <path class="cls-2" d="m248.35,277.66c-3.27-1.06-6.01-2.33-8.22-3.8-.88.09-1.56.14-2.04.14-2.79,0-5.06-1.02-6.81-3.05s-2.62-4.68-2.62-7.92.88-6,2.65-7.99c1.77-1.99,4.12-2.99,7.08-2.99s5.32,1,7.08,2.99c1.76,2,2.64,4.67,2.64,8.02,0,4.8-1.77,8.13-5.33,9.97,2.39,1.05,4.87,1.81,7.43,2.26l-1.87,2.36Zm-10.05-5.88c2.13,0,3.77-.77,4.93-2.3,1.16-1.53,1.74-3.71,1.74-6.51s-.58-4.85-1.74-6.39c-1.16-1.54-2.78-2.31-4.85-2.31s-3.69.77-4.85,2.31-1.74,3.68-1.74,6.42.58,4.88,1.73,6.44c1.15,1.56,2.74,2.34,4.78,2.34Z"/>
      <path class="cls-2" d="m252.25,273.48v-20.91h2.95v18.69h9.36v2.22h-12.31Z"/>
    </g>
  </g>
</svg>