<svg xmlns:svg="http://www.w3.org/2000/svg" xmlns="http://www.w3.org/2000/svg" id="svg4060" version="1.1" width="500" height="500" viewBox="-30 -40 500 500">
  <g transform="translate(30,30) scale(5)">
  <path id="path55" d="M 19.35157,0 C 17.87755,0 16.59295,0.26384 15.34571,0.79297 14.13626,1.3221 13.0777,2.0395 12.13282,2.98438 L 35.98243,29.13867 59.79297,2.98438 C 58.84809,2.0395 57.78895,1.3221 56.50391,0.79297 55.33226,0.26384 53.97265,0 52.57422,0 51.10021,0 49.70233,0.30221 48.45508,0.86914 47.17004,1.43607 46.11159,2.26732 45.12891,3.25 L 35.98243,13.37891 26.72266,3.25 C 25.77778,2.26732 24.71932,1.43607 23.39649,0.86914 22.22484,0.30221 20.82558,0 19.35157,0 Z M 35.98243,33.10742 12.13282,59.30078 c 0.94488,0.90709 2.00344,1.66228 3.21289,2.19141 1.24724,0.52913 2.53321,0.79297 3.93164,0.79297 1.5496,0 2.87189,-0.34001 4.11914,-0.86914 1.32283,-0.60473 2.45551,-1.39818 3.40039,-2.38086 l 9.18555,-10.12891 9.18359,10.12891 c 0.94488,0.98268 2.00402,1.77613 3.28906,2.38086 1.24725,0.52913 2.60733,0.86914 4.11914,0.86914 1.39843,0 2.75804,-0.26384 3.92969,-0.79297 1.28504,-0.52913 2.34418,-1.28432 3.28906,-2.19141 z" style="fill:#000000;fill-rule:evenodd;stroke:none;stroke-width:1.06665826;stroke-linejoin:round"/>
  <path id="path69" d="M 7.86133,7.86133 C 6.34952,7.89913 4.87557,8.20065 3.55274,8.76758 2.19211,9.33451 1.02048,10.12865 0,11.11133 L 18.21875,31.14258 0,51.13672 c 1.02048,1.02047 2.19211,1.81325 3.55274,2.41797 1.32283,0.60472 2.79678,0.86972 4.30859,0.94531 1.6252,-0.0756 3.13869,-0.33921 4.53711,-1.01953 1.39843,-0.64252 2.60648,-1.51331 3.62695,-2.60937 L 33.97852,31.14258 16.02539,11.45117 C 14.92933,10.39291 13.7578,9.52407 12.35938,8.84375 10.96095,8.20123 9.48653,7.89913 7.86133,7.86133 Z m 56.08985,0 c -1.6252,0.0378 -3.06252,0.3399 -4.46094,0.98242 -1.39843,0.68032 -2.60775,1.54916 -3.66602,2.60742 L 37.94727,31.14258 55.82422,50.8711 c 1.05827,1.09606 2.26759,1.96685 3.66602,2.60937 1.39842,0.68032 2.83574,0.94394 4.46094,1.01953 1.62519,-0.0756 3.02286,-0.34059 4.3457,-0.94531 1.43622,-0.60472 2.53226,-1.3975 3.55273,-2.41797 L 53.66993,31.14258 71.84961,11.11133 C 70.82914,10.12865 69.7331,9.33451 68.29688,8.76758 66.97404,8.20065 65.57637,7.89913 63.95118,7.86133 z" style="fill:#e57000;fill-rule:evenodd;stroke:none;stroke-width:1.06665826;stroke-linejoin:round"/>
  </g>
</svg>