<svg xmlns="http://www.w3.org/2000/svg" width="100" viewBox="30 -20 200 200" fill="none" height="100">
  <g transform="translate(62.2,14.4)">
    <path fill-rule="evenodd" clip-rule="evenodd" d="M9 13.5C9 11.0147 11.0147 9 13.5 9H128.636L112.886 24.75H33.75C28.7794 24.75 24.75 28.7794 24.75 33.75V90H33.75V33.75H103.886L88.136 49.5H56.25C52.5221 49.5 49.5 52.5221 49.5 56.25V67.5H58.5V58.5H79.136L5.15901 132.477C0.906757 136.729 3.91837 144 9.93198 144H130.5C137.956 144 144 137.956 144 130.5V31.5H135V130.5C135 132.985 132.985 135 130.5 135H15.364L31.114 119.25H110.25C115.221 119.25 119.25 115.221 119.25 110.25V54H110.25V110.25H40.114L55.5827 94.7812H87.75C91.4779 94.7812 94.5 91.7592 94.5 88.0312V76.5H85.5V85.7812H64.5827L138.841 11.523C143.093 7.27073 140.082 0 134.068 0H13.5C6.04416 0 0 6.04416 0 13.5V112.5H9V13.5Z" fill="#084CCF"/>
  </g>
</svg>